<?xml version="1.0" standalone="no"?>
<!DOCTYPE svg PUBLIC "-//W3C//DTD SVG 20010904//EN"
 "http://www.w3.org/TR/2001/REC-SVG-20010904/DTD/svg10.dtd">
<svg version="1.0" xmlns="http://www.w3.org/2000/svg"
 width="200.000000pt" height="200.000000pt" viewBox="0 0 200.000000 200.000000"
 preserveAspectRatio="xMidYMid meet">
<metadata>
Created by potrace 1.11, written by Peter Selinger 2001-2013
</metadata>
<g transform="translate(0.000000,200.000000) scale(0.100000,-0.100000)"
fill="#000000" stroke="none">
<path d="M1280 1891 c0 -6 -36 -40 -80 -76 -64 -54 -82 -74 -91 -107 -6 -24
-7 -44 -2 -49 16 -16 132 50 159 90 27 42 44 134 25 145 -6 4 -11 3 -11 -3z"/>
<path d="M995 1759 c-36 -40 -37 -44 -32 -96 3 -31 8 -58 11 -61 9 -8 76 70
83 95 6 27 -4 90 -16 98 -5 2 -26 -14 -46 -36z"/>
<path d="M1270 1680 c-19 -22 -38 -48 -42 -58 -8 -21 -10 -82 -3 -82 25 0 88
46 101 73 16 34 9 97 -12 104 -5 2 -25 -15 -44 -37z"/>
<path d="M881 1675 c-17 -20 -31 -39 -32 -43 0 -4 -2 -15 -4 -24 -2 -9 11 -39
28 -65 l31 -48 8 35 c14 64 21 180 10 180 -5 0 -24 -16 -41 -35z"/>
<path d="M766 1641 c-13 -14 -19 -41 -21 -103 l-4 -83 35 37 c28 31 34 46 34
80 0 49 -9 88 -20 88 -4 0 -15 -9 -24 -19z"/>
<path d="M1075 1613 c-29 -7 -54 -32 -76 -75 l-19 -38 25 0 c56 0 110 39 149
108 7 12 -36 15 -79 5z"/>
<path d="M625 1534 c-3 -25 -13 -64 -21 -86 -19 -56 -18 -117 5 -151 l18 -29
22 31 c28 39 51 105 51 145 0 36 -30 105 -52 124 -14 11 -17 6 -23 -34z"/>
<path d="M1433 1550 c-6 -16 -9 -46 -6 -67 6 -46 62 -153 81 -153 21 0 54 86
47 121 -7 33 -43 79 -84 108 l-27 20 -11 -29z"/>
<path d="M1151 1556 c-19 -22 -21 -77 -5 -108 12 -24 18 -27 30 -18 7 7 19 30
25 52 8 32 7 44 -6 64 -18 27 -28 30 -44 10z"/>
<path d="M522 1509 c3 -46 28 -73 49 -52 16 16 -3 63 -32 81 -19 12 -20 11
-17 -29z"/>
<path d="M1295 1531 c-60 -37 -87 -76 -93 -132 -5 -51 -4 -52 19 -45 13 5 33
8 44 7 89 -4 89 -4 122 35 40 45 41 54 8 54 -16 0 -42 -15 -69 -40 -51 -48
-74 -54 -27 -8 38 38 51 66 51 114 0 39 -11 42 -55 15z"/>
<path d="M924 1468 c-19 -21 -84 -131 -84 -143 0 -2 6 -3 13 -1 6 3 24 7 39
10 56 13 84 77 59 139 -6 17 -8 16 -27 -5z"/>
<path d="M1662 1464 c-25 -10 -39 -27 -57 -69 -14 -31 -25 -58 -25 -60 0 -3
14 -5 31 -5 53 0 92 26 121 82 15 28 26 53 24 55 -10 11 -66 9 -94 -3z"/>
<path d="M764 1429 c-23 -24 -29 -40 -30 -75 -1 -44 0 -45 25 -39 41 9 61 41
61 96 0 58 -13 63 -56 18z"/>
<path d="M304 1442 c3 -5 8 -27 11 -48 10 -64 24 -90 64 -112 21 -12 43 -22
48 -22 10 0 10 85 -1 117 -4 12 -19 31 -34 41 -30 22 -98 40 -88 24z"/>
<path d="M475 1400 c-12 -13 -18 -34 -17 -61 3 -58 10 -64 43 -33 31 30 39 80
17 102 -16 16 -22 15 -43 -8z"/>
<path d="M1030 1384 c-19 -22 3 -87 35 -104 31 -16 32 -26 4 -33 -29 -8 -14
-27 21 -27 34 0 47 15 24 28 -15 8 -15 10 0 15 35 14 6 96 -43 122 -26 13 -30
13 -41 -1z"/>
<path d="M160 1347 c1 -35 60 -77 109 -77 34 0 38 7 19 33 -17 22 -128 60
-128 44z"/>
<path d="M1718 1323 c-9 -3 -34 -12 -54 -22 l-37 -18 45 -27 c25 -14 59 -26
77 -26 30 0 91 27 91 40 0 17 -96 58 -122 53z"/>
<path d="M1230 1255 c0 -22 -9 -30 -32 -26 -5 0 -8 -3 -8 -9 0 -5 -7 -7 -15
-4 -9 4 -15 0 -15 -8 0 -9 10 -14 27 -14 23 1 28 -4 34 -31 3 -18 3 -33 -1
-33 -5 0 -5 -12 -1 -27 8 -30 48 -47 88 -37 32 9 29 24 -6 24 -32 0 -41 14
-41 66 0 35 3 37 63 37 9 0 17 5 17 12 0 20 -12 25 -28 12 -9 -6 -13 -7 -9 -1
3 6 -3 10 -16 10 -18 -1 -21 4 -19 27 3 22 -1 27 -17 27 -16 0 -21 -6 -21 -25z"/>
<path d="M330 1230 l-25 -7 25 -4 c21 -3 25 -10 27 -49 3 -53 -4 -93 -15 -86
-4 3 -14 1 -22 -5 -10 -6 4 -9 43 -9 36 0 56 4 52 10 -3 6 -12 10 -18 10 -7 0
-14 14 -15 31 -2 30 -1 31 35 27 29 -2 38 1 38 12 0 11 -9 14 -37 12 -35 -3
-38 -1 -38 22 0 25 2 26 66 26 43 0 63 -4 59 -11 -4 -5 3 -19 16 -30 27 -24
38 -89 14 -89 -8 0 -15 -5 -15 -11 0 -6 7 -8 16 -5 9 3 12 2 8 -5 -4 -7 6 -9
32 -5 45 8 53 13 30 22 -19 7 -22 57 -3 71 13 11 52 10 100 -2 16 -4 27 -3 27
3 0 21 -28 30 -105 33 -71 3 -81 6 -85 24 -5 18 -15 20 -95 21 -50 1 -101 -2
-115 -6z"/>
<path d="M1380 1225 c0 -8 7 -15 16 -15 10 0 14 -6 10 -15 -7 -20 8 -19 25 1
11 14 10 18 -6 30 -25 18 -45 18 -45 -1z"/>
<path d="M1522 1219 c-31 -12 -40 -39 -17 -55 10 -7 38 -16 64 -20 80 -11 100
-34 47 -53 -24 -10 -105 12 -117 30 -12 20 -38 19 -44 -2 -8 -26 3 -42 26 -36
10 3 35 -1 55 -8 58 -20 154 2 154 35 0 15 -46 41 -77 44 -15 1 -34 5 -41 9
-6 5 -12 5 -12 1 0 -3 -7 -1 -15 6 -39 32 8 47 80 25 65 -19 65 -19 65 9 0 23
-19 30 -36 13 -4 -4 -16 -5 -28 -2 -49 11 -82 12 -104 4z"/>
<path d="M1054 1198 c-3 -4 -10 -6 -15 -3 -5 4 -9 1 -9 -4 0 -6 9 -11 20 -11
21 0 26 -23 14 -66 -4 -16 -12 -20 -27 -17 -16 3 -18 2 -8 -5 11 -8 11 -10 0
-15 -8 -3 16 -6 53 -6 61 -1 66 1 61 18 -3 13 -10 18 -21 14 -13 -5 -14 0 -9
33 3 21 2 46 -1 54 -8 16 -50 22 -58 8z m33 -40 c-3 -8 -6 -5 -6 6 -1 11 2 17
5 13 3 -3 4 -12 1 -19z"/>
<path d="M745 1190 c-6 -9 1 -14 18 -11 4 0 7 -15 7 -35 0 -20 4 -33 10 -29 5
3 7 0 5 -8 -3 -8 5 -19 20 -27 23 -12 28 -12 35 0 6 8 10 11 10 5 0 -13 147
-18 155 -5 3 6 -5 10 -18 10 -23 0 -23 2 -17 46 5 34 4 47 -6 50 -8 2 -21 6
-29 9 -8 2 -15 1 -16 -3 -9 -76 -20 -92 -65 -92 -30 0 -34 3 -35 28 -1 15 -1
34 0 43 3 23 -61 40 -74 19z"/>
<path d="M1573 986 l-28 -24 43 -13 c48 -14 88 -5 106 24 26 41 -75 53 -121
13z"/>
<path d="M447 993 l-27 -4 18 -27 c10 -15 23 -39 30 -54 16 -39 72 -64 129
-59 13 1 7 22 -23 87 -21 44 -69 65 -127 57z"/>
<path d="M954 944 c13 -80 64 -128 58 -54 -2 34 -36 90 -53 90 -6 0 -8 -15 -5
-36z"/>
<path d="M1763 970 c-41 -9 -53 -19 -80 -67 l-22 -39 27 2 c15 1 39 2 54 3 34
1 85 47 93 82 6 23 3 26 -17 26 -13 0 -38 -4 -55 -7z"/>
<path d="M315 942 c7 -30 51 -71 78 -73 9 -1 25 -2 35 -3 13 -1 16 6 15 29 -3
42 -31 65 -87 69 -47 4 -48 4 -41 -22z"/>
<path d="M1076 887 c-25 -46 -46 -89 -46 -96 0 -18 -10 -13 -48 25 -19 19 -57
46 -83 59 -47 24 -129 48 -129 38 0 -3 28 -34 63 -68 109 -110 152 -208 141
-321 -2 -27 -16 -96 -30 -154 -28 -115 -31 -165 -14 -228 l11 -42 135 0 134 0
-29 58 c-86 170 -99 364 -33 475 l20 35 -46 24 c-31 16 -47 31 -47 44 0 10 12
66 28 123 15 57 26 106 23 108 -2 3 -25 -33 -50 -80z"/>
<path d="M1263 934 c-23 -6 -53 -19 -64 -30 -24 -21 -58 -89 -59 -117 0 -16 2
-16 23 -3 12 8 45 18 72 21 98 12 122 23 169 76 25 28 46 55 46 59 0 12 -135
7 -187 -6z"/>
<path d="M1469 861 c-22 -21 -39 -44 -39 -50 0 -16 76 -14 108 3 15 8 40 28
55 44 l28 29 -32 7 c-62 12 -80 7 -120 -33z"/>
<path d="M685 863 c-34 -8 -36 -18 -8 -45 32 -30 67 -40 101 -27 20 7 21 12
12 30 -9 17 -71 53 -82 48 -2 -1 -12 -3 -23 -6z"/>
<path d="M525 798 c23 -77 83 -138 136 -138 37 0 129 33 129 46 0 15 -86 56
-155 74 -27 7 -62 19 -77 27 -37 18 -40 17 -33 -9z"/>
<path d="M1685 801 c-11 -5 -54 -11 -95 -15 -83 -8 -129 -25 -148 -56 -18 -30
-9 -38 54 -46 95 -11 172 25 210 99 15 28 12 31 -21 18z"/>
<path d="M1265 732 c-31 -5 -69 -37 -60 -52 12 -19 106 -7 149 19 20 13 34 26
31 29 -7 7 -87 10 -120 4z"/>
<path d="M799 649 c-30 -17 -63 -43 -72 -59 -19 -32 -35 -140 -20 -140 18 0
117 66 135 90 20 28 36 124 21 133 -5 3 -33 -8 -64 -24z"/>
<path d="M543 649 c-46 -13 -48 -24 -9 -54 41 -31 84 -35 118 -9 l25 18 -33
22 c-43 29 -63 34 -101 23z"/>
<path d="M1348 653 c-48 -7 -53 -28 -14 -58 43 -32 85 -35 121 -6 15 11 22 21
14 21 -7 0 -22 8 -33 19 -25 22 -51 29 -88 24z"/>
<path d="M903 571 c-17 -15 -37 -41 -46 -57 -15 -30 -40 -124 -35 -130 2 -1
21 5 43 15 55 25 84 79 78 146 -3 28 -6 51 -7 52 -1 1 -16 -10 -33 -26z"/>
<path d="M1183 577 c-18 -5 -33 -14 -33 -20 0 -5 17 -27 39 -48 36 -36 57 -44
105 -39 18 2 96 46 96 54 0 2 -21 16 -46 31 -50 29 -111 38 -161 22z"/>
<path d="M1150 426 c0 -13 6 -29 14 -35 14 -12 96 -13 96 -2 -1 22 -56 61 -87
61 -18 0 -23 -6 -23 -24z"/>
</g>
</svg>
